<svg width="512" height="512" viewBox="0 0 512 512" xmlns="http://www.w3.org/2000/svg">
  <!-- White/inverted logo for dark backgrounds -->
  <defs>
    <path id="heart-white" d="M256 470c-26-12-62-41-93-75C96 328 64 264 64 204c0-82 63-140 142-140 46 0 86 21 112 56 26-35 66-56 112-56 79 0 142 58 142 140 0 60-32 124-99 191-31 34-67 63-93 75"/>
  </defs>
  
  <!-- Heart shape in white -->
  <use href="#heart-white" fill="#ffffff"/>
  
  <!-- Fork in white -->
  <g transform="translate(220, 180)">
    <!-- Fork handle -->
    <path d="M 20 120 Q 15 80 20 40" stroke="#ffffff" stroke-width="12" fill="none" stroke-linecap="round"/>
    <!-- Fork prongs -->
    <rect x="0" y="10" width="8" height="70" fill="#ffffff" rx="4"/>
    <rect x="16" y="10" width="8" height="70" fill="#ffffff" rx="4"/>
    <rect x="32" y="10" width="8" height="70" fill="#ffffff" rx="4"/>
  </g>
  
  <!-- Leaf/bolt in white -->
  <path d="M 380 140 Q 360 160 350 200 Q 340 240 360 280" stroke="#ffffff" stroke-width="16" fill="none" stroke-linecap="round"/>
</svg>
