<svg width="512" height="512" viewBox="0 0 512 512" xmlns="http://www.w3.org/2000/svg" role="img" aria-label="FuelSync logo">
  <defs>
    <linearGradient id="fuelSyncBlack" x1="0" y1="0" x2="1" y2="1">
      <stop offset="0%" stop-color="#171717"/>
      <stop offset="100%" stop-color="#0b0b0b"/>
    </linearGradient>
  </defs>

  <path fill="url(#fuelSyncBlack)" d="M256 470c-26-12-62-41-93-75C96 328 64 264 64 204c0-82 63-140 142-140 46 0 86 21 112 56 26-35 66-56 112-56 79 0 142 58 142 140 0 60-32 124-99 191-31 34-67 63-93 75l-12 6-12-6z"/>

  <path fill="#f3f4f6" d="M360 148c24 0 46 9 62 24-73 17-151 50-232 98 25-49 55-86 89-108 23-10 52-14 81-14z"/>

  <path fill="#f3f4f6" d="M220 140c10 0 18 8 18 18v92c0 10-8 18-18 18s-18-8-18-18v-92c0-10 8-18 18-18zm-38 8c9 2 15 12 12 21l-24 87c-3 10-13 16-22 13s-15-13-12-22l24-87c3-9 13-15 22-12zm76 0c9-3 19 3 22 12l24 87c3 9-3 19-12 22s-19-3-22-13l-24-87c-3-9 3-19 12-21z"/>

  <path fill="#f3f4f6" d="M214 262c26 0 42 20 42 50 0 22-6 46-17 73-10 24-17 49-18 77h-36c0-33 7-63 22-92 8-17 12-35 12-52 0-8-2-12-5-12-10 0-26-11-26-25 0-10 8-19 18-19h8z"/>

  <path fill="url(#fuelSyncBlack)" d="M225 346c66-35 132-62 199-82-41 54-99 107-176 156l-17-74-6 0z" opacity="0.9"/>
</svg>
