<?xml version="1.0" encoding="UTF-8"?>
<svg version="1.1" xmlns="http://www.w3.org/2000/svg" width="612" height="408">
<path d="M0 0 C1.71394575 1.28421008 3.42281169 2.57524598 5.125 3.875 C5.89070313 4.40867187 6.65640625 4.94234375 7.4453125 5.4921875 C7.99960937 5.94851562 8.55390625 6.40484375 9.125 6.875 C9.125 7.535 9.125 8.195 9.125 8.875 C9.74375 9.16375 10.3625 9.4525 11 9.75 C13.125 10.875 13.125 10.875 15.125 12.875 C14.63 9.41 14.63 9.41 14.125 5.875 C22.69740638 -0.62820484 31.00979274 -6.21068608 41.125 -10.125 C42.40697266 -10.63353516 42.40697266 -10.63353516 43.71484375 -11.15234375 C56.46853924 -15.41667645 71.9146141 -14.50379606 84.125 -9.125 C87.06075761 -7.63035137 89.46716205 -6.10534984 92.125 -4.125 C92.125 -3.465 92.125 -2.805 92.125 -2.125 C94.105 -1.135 94.105 -1.135 96.125 -0.125 C96.125 0.535 96.125 1.195 96.125 1.875 C96.785 1.875 97.445 1.875 98.125 1.875 C98.455 2.865 98.785 3.855 99.125 4.875 C93.74958389 6.83758615 88.37220638 8.79284166 82.9765625 10.69921875 C61.49732826 18.32758652 39.43634403 26.57755443 20.45703125 39.4296875 C18.125 40.875 18.125 40.875 15.38671875 41.8828125 C14.26716797 42.37394531 14.26716797 42.37394531 13.125 42.875 C12.795 43.865 12.465 44.855 12.125 45.875 C11.135 45.875 10.145 45.875 9.125 45.875 C8.815625 46.7103125 8.815625 46.7103125 8.5 47.5625 C6.95771065 50.15635027 5.06910942 51.59553175 2.71484375 53.4375 C0.94472479 55.03800068 -0.28571842 56.71633185 -1.625 58.6875 C-2.3675 59.739375 -3.11 60.79125 -3.875 61.875 C-4.535 61.875 -5.195 61.875 -5.875 61.875 C-5.98199219 62.42929688 -6.08898437 62.98359375 -6.19921875 63.5546875 C-7.00374813 66.31706007 -8.25200137 68.50695681 -9.6875 71 C-19.38829101 88.61030886 -21.39633176 108.2262218 -16.875 127.875 C-15.57004079 131.84465853 -13.96594623 135.66400474 -12.3125 139.5 C-9.54335646 146.00146745 -9.54335646 146.00146745 -8.875 148.875 C-10.19923317 151.85315094 -12.32431131 153.87253625 -14.875 155.875 C-17.5625 156.4375 -17.5625 156.4375 -19.875 155.875 C-21.36 154.885 -21.36 154.885 -22.875 153.875 C-22.875 153.215 -22.875 152.555 -22.875 151.875 C-24.195 151.545 -25.515 151.215 -26.875 150.875 C-26.875 150.215 -26.875 149.555 -26.875 148.875 C-27.431875 148.813125 -27.98875 148.75125 -28.5625 148.6875 C-31.89198789 147.51767993 -33.51068181 145.46998338 -35.875 142.875 C-36.7 142.05 -37.525 141.225 -38.375 140.375 C-44.60725941 132.70300978 -46.69218669 122.51187328 -46.875 112.875 C-46.91367188 111.73804688 -46.95234375 110.60109375 -46.9921875 109.4296875 C-47.13105503 102.28572451 -46.64236257 95.79187222 -44.875 88.875 C-44.5965625 87.1425 -44.5965625 87.1425 -44.3125 85.375 C-42.875 82.875 -42.875 82.875 -40.921875 82.17578125 C-39.32956889 81.8462477 -37.72974983 81.55137738 -36.125 81.2890625 C-30.64599768 80.28077388 -28.16522782 77.07287687 -24.875 72.875 C-24.215 72.875 -23.555 72.875 -22.875 72.875 C-22.689375 71.7303125 -22.689375 71.7303125 -22.5 70.5625 C-21.875 67.875 -21.875 67.875 -19.875 64.875 C-19.34062505 63.1870676 -18.86823346 61.47902509 -18.4375 59.76171875 C-18.18226563 58.76076172 -17.92703125 57.75980469 -17.6640625 56.72851562 C-17.40367187 55.68373047 -17.14328125 54.63894531 -16.875 53.5625 C-13.86042559 41.601206 -13.86042559 41.601206 -11.875 35.875 C-11.33995135 33.98312941 -10.81858936 32.08732235 -10.3125 30.1875 C-9.56342049 27.38136275 -8.79373854 24.63121563 -7.875 21.875 C-9.36 20.885 -9.36 20.885 -10.875 19.875 C-11.05675781 20.56464844 -11.23851562 21.25429687 -11.42578125 21.96484375 C-13.75525108 30.6734771 -16.48932766 39.0209271 -19.890625 47.3671875 C-21.3761744 51.15180144 -22.64027009 55.00243801 -23.875 58.875 C-25.525 59.205 -27.175 59.535 -28.875 59.875 C-30 58.2890625 -30 58.2890625 -30.875 55.875 C-30.1875 52.8359375 -30.1875 52.8359375 -28.875 49.25 C-28.40054104 47.91554247 -27.92660648 46.58089841 -27.453125 45.24609375 C-27.19724609 44.54081543 -26.94136719 43.83553711 -26.67773438 43.10888672 C-25.27147024 39.19546918 -23.94944689 35.25419027 -22.625 31.3125 C-22.23828125 30.18884033 -22.23828125 30.18884033 -21.84375 29.04248047 C-20.4760943 24.99862082 -19.43921544 21.12676638 -18.875 16.875 C-20.36 17.37 -20.36 17.37 -21.875 17.875 C-23.07459899 20.28085217 -23.07459899 20.28085217 -23.99609375 23.2734375 C-24.37443359 24.39363281 -24.75277344 25.51382813 -25.14257812 26.66796875 C-25.52865234 27.85003906 -25.91472656 29.03210938 -26.3125 30.25 C-27.46061513 33.68466481 -28.61098294 37.11847924 -29.76904297 40.54980469 C-30.49743896 42.73981648 -31.20033761 44.93849989 -31.87548828 47.14550781 C-32.19630371 48.14163086 -32.51711914 49.13775391 -32.84765625 50.1640625 C-33.119729 51.0504541 -33.39180176 51.9368457 -33.67211914 52.85009766 C-34.875 54.875 -34.875 54.875 -37.37670898 55.79443359 C-38.20114502 55.82102051 -39.02558105 55.84760742 -39.875 55.875 C-40.865 54.885 -40.865 54.885 -41.875 53.875 C-40.82564978 46.99592631 -38.49003977 40.52974721 -36.25 33.9609375 C-34.78287246 29.64176463 -33.41534088 25.29361835 -32.0625 20.9375 C-31.84360107 20.23294678 -31.62470215 19.52839355 -31.39916992 18.80249023 C-30.8899385 17.16035733 -30.38228367 15.51773564 -29.875 13.875 C-30.865 13.875 -31.855 13.875 -32.875 13.875 C-33.16632813 14.7721875 -33.45765625 15.669375 -33.7578125 16.59375 C-36.27129336 24.24484898 -38.91286513 31.81842285 -41.81884766 39.33007812 C-43.40668389 43.47151477 -44.71273471 47.60050776 -45.875 51.875 C-48.25 52.5 -48.25 52.5 -50.875 52.875 C-51.865 51.885 -51.865 51.885 -52.875 50.875 C-52.75821312 44.56850869 -50.65959479 39.70249966 -48.14453125 33.9765625 C-46.58584858 30.16858084 -45.53171792 26.33760109 -44.55078125 22.34765625 C-43.875 19.875 -43.875 19.875 -42.80078125 17.234375 C-41.77567207 14.62186047 -41.71608383 12.656033 -41.875 9.875 C-44.33011438 12.33011438 -45.04510161 14.49865195 -46.30078125 17.73828125 C-46.76806641 18.93646484 -47.23535156 20.13464844 -47.71679688 21.36914062 C-48.20714165 22.64188455 -48.69737562 23.91467118 -49.1875 25.1875 C-49.8980957 27.0137793 -49.8980957 27.0137793 -50.62304688 28.87695312 C-51.57654917 31.33049324 -52.52396193 33.7864084 -53.46533203 36.24462891 C-54.39254765 38.63252227 -55.34604082 41.0104063 -56.32763672 43.37646484 C-58.91603314 49.70601096 -60.66129722 55.01688028 -60.375 61.875 C-60.37757813 62.58527344 -60.38015625 63.29554688 -60.3828125 64.02734375 C-60.2994707 68.50279834 -59.40068712 71.22081438 -56.875 74.875 C-56.875 75.535 -56.875 76.195 -56.875 76.875 C-55.555 77.535 -54.235 78.195 -52.875 78.875 C-52.96587891 79.85726562 -52.96587891 79.85726562 -53.05859375 80.859375 C-53.23621705 82.7941026 -53.41183298 84.72901507 -53.5859375 86.6640625 C-53.77492527 88.7633591 -53.96748483 90.86233801 -54.1640625 92.9609375 C-54.94239195 101.61151337 -55.43032265 109.31930345 -53.3203125 117.7890625 C-52.73958568 120.50930917 -52.73297128 123.1054399 -52.875 125.875 C-55.375 124.5 -55.375 124.5 -57.875 122.875 C-57.875 122.215 -57.875 121.555 -57.875 120.875 C-58.45121094 120.64167969 -59.02742188 120.40835938 -59.62109375 120.16796875 C-64.44831016 117.39880301 -67.52569577 112.23407587 -70.875 107.875 C-71.33422852 107.27864746 -71.79345703 106.68229492 -72.26660156 106.06787109 C-78.17251817 98.34335201 -83.60679115 90.64854042 -87.875 81.875 C-88.31328125 80.99585938 -88.7515625 80.11671875 -89.203125 79.2109375 C-94.1628863 68.8432437 -97.51617789 58.40411044 -97.875 46.875 C-97.93494141 45.15216797 -97.93494141 45.15216797 -97.99609375 43.39453125 C-98.11978212 36.60622249 -97.94326938 30.36508667 -95.875 23.875 C-95.63007813 23.08867187 -95.38515625 22.30234375 -95.1328125 21.4921875 C-90.4837929 8.36796403 -81.51450205 -0.7047554 -69.4921875 -7.46484375 C-67.31630322 -8.49819381 -65.15008423 -9.33609163 -62.875 -10.125 C-62.12863281 -10.42148438 -61.38226563 -10.71796875 -60.61328125 -11.0234375 C-40.15980445 -18.02321449 -17.01844816 -12.2586711 0 0 Z " fill="#F1F1F1" transform="translate(296.875,115.125)"/>
<path d="M0 0 C-0.55698654 5.42885618 -1.91451816 9.87497234 -4.0625 14.875 C-4.37485596 15.61186035 -4.68721191 16.3487207 -5.0090332 17.10791016 C-5.99406896 19.41064834 -6.99550309 21.70569364 -8 24 C-8.30325195 24.70511719 -8.60650391 25.41023438 -8.91894531 26.13671875 C-15.7286082 41.86608091 -24.95366808 56.14788117 -35 70 C-35.70253906 71.00289063 -36.40507812 72.00578125 -37.12890625 73.0390625 C-38.20978516 74.56660156 -38.20978516 74.56660156 -39.3125 76.125 C-39.96863281 77.05570312 -40.62476563 77.98640625 -41.30078125 78.9453125 C-41.86152344 79.62335938 -42.42226563 80.30140625 -43 81 C-43.66 81 -44.32 81 -45 81 C-45.495 82.98 -45.495 82.98 -46 85 C-46.66 85 -47.32 85 -48 85 C-48.061875 85.556875 -48.12375 86.11375 -48.1875 86.6875 C-49.33702987 89.95923887 -51.52663172 91.5822912 -54 94 C-55.28459065 95.39629419 -56.56876483 96.79301846 -57.84277344 98.19897461 C-63.33533815 104.25280244 -68.99552656 110.13257085 -74.75 115.9375 C-75.44641602 116.64680664 -76.14283203 117.35611328 -76.86035156 118.08691406 C-80.76405495 121.99801433 -84.73800907 125.47861025 -89.24707031 128.67797852 C-91.05424415 129.96854591 -91.05424415 129.96854591 -92.60449219 131.66772461 C-94 133 -94 133 -96 133 C-96.33 133.99 -96.66 134.98 -97 136 C-97.99 136 -98.98 136 -100 136 C-100.33 136.99 -100.66 137.98 -101 139 C-106.97084314 144.06750524 -113.76249353 148.20820569 -120.390625 152.35546875 C-122.74971206 153.84225865 -125.06611474 155.37436783 -127.375 156.9375 C-137.91020522 163.97964959 -148.77090455 170.15983899 -160 176 C-160.86496094 176.47050781 -161.72992188 176.94101562 -162.62109375 177.42578125 C-164.37451779 178.36201317 -166.18216091 179.19595579 -168 180 C-168.99 179.67 -169.98 179.34 -171 179 C-166.17504822 174.59946527 -161.31775877 170.37096635 -156.05078125 166.5078125 C-153.73792853 164.80731507 -151.45960686 163.06705102 -149.1875 161.3125 C-148.45917969 160.75175781 -147.73085938 160.19101562 -146.98046875 159.61328125 C-144.98904985 158.05836583 -144.98904985 158.05836583 -143.36328125 156.29296875 C-142 155 -142 155 -140 155 C-139.01 153.02 -139.01 153.02 -138 151 C-137.34 151 -136.68 151 -136 151 C-135.67 150.01 -135.34 149.02 -135 148 C-133.50390625 146.52734375 -133.50390625 146.52734375 -131.5625 144.9375 C-125.6011698 139.88168831 -119.35293589 134.52940384 -115 128 C-114.34 128 -113.68 128 -113 128 C-112.34 126.68 -111.68 125.36 -111 124 C-110.34 124 -109.68 124 -109 124 C-108.9175 123.4225 -108.835 122.845 -108.75 122.25 C-107.78202213 119.3460664 -106.31305716 117.96259396 -104 116 C-103.34 116 -102.68 116 -102 116 C-101.7321167 115.41750488 -101.4642334 114.83500977 -101.18823242 114.23486328 C-99.98083792 111.96395938 -98.64798952 110.20203704 -96.98828125 108.2421875 C-96.10426636 107.18825806 -96.10426636 107.18825806 -95.20239258 106.11303711 C-94.57872803 105.37448486 -93.95506348 104.63593262 -93.3125 103.875 C-88.21969111 97.7629867 -83.43069243 91.61150095 -79 85 C-78.17820663 83.83422399 -77.35375847 82.67031702 -76.52734375 81.5078125 C-68.97846219 70.82288906 -61.85851591 59.71703182 -56 48 C-60.33602106 47.80290813 -64.23759538 48.15914181 -68.51171875 48.9375 C-74.68206451 49.99353336 -80.8234636 50.64328605 -87.0625 51.125 C-88.66919556 51.25237549 -88.66919556 51.25237549 -90.30834961 51.38232422 C-99.88421225 52.08964438 -109.40431476 52.20586691 -119 52 C-119 51.34 -119 50.68 -119 50 C-102.76502519 40.62898755 -86.35058626 31.32722187 -69.10546875 23.91796875 C-67.59609395 23.25989254 -66.0998823 22.57130237 -64.61328125 21.86328125 C-58.40078742 18.91954351 -52.09373942 16.53719117 -45.60253906 14.30126953 C-41.42346225 12.86144267 -37.28660619 11.35363252 -33.16918945 9.74633789 C-8.10672228 0 -8.10672228 0 0 0 Z " fill="#F1F1F1" transform="translate(430,123)"/>
<path d="M0 0 C0.66 0.33 1.32 0.66 2 1 C-0.64 3.64 -3.28 6.28 -6 9 C-5.34 9.66 -4.68 10.32 -4 11 C-5.93108963 12.03290841 -7.870118 13.05098672 -9.8125 14.0625 C-10.89144531 14.63097656 -11.97039062 15.19945312 -13.08203125 15.78515625 C-16 17 -16 17 -19 16 C-14.04757218 11.4832024 -9.06289292 7.1565973 -3.62890625 3.2265625 C-1.86372518 1.95674161 -1.86372518 1.95674161 0 0 Z " fill="#929292" transform="translate(278,286)"/>
<path d="M0 0 C0 3 0 3 -1.42578125 4.71875 C-2.04839844 5.3065625 -2.67101562 5.894375 -3.3125 6.5 C-3.92738281 7.0878125 -4.54226563 7.675625 -5.17578125 8.28125 C-5.77777344 8.8484375 -6.37976563 9.415625 -7 10 C-7.515625 10.53238281 -8.03125 11.06476563 -8.5625 11.61328125 C-10.49149811 13.47413541 -12.67789398 14.68204794 -15 16 C-15 15.01 -15 14.02 -15 13 C-14.071875 12.87625 -14.071875 12.87625 -13.125 12.75 C-10.81562433 12.18741541 -10.81562433 12.18741541 -9.75 9.9375 C-9.5025 9.298125 -9.255 8.65875 -9 8 C-8.34 8 -7.68 8 -7 8 C-6.67 7.01 -6.34 6.02 -6 5 C-4.12382302 3.15500602 -2.07262391 1.6316401 0 0 Z " fill="#A3A3A3" transform="translate(301,266)"/>
<path d="M0 0 C0.33 0.99 0.66 1.98 1 3 C-0.61387065 5.10699779 -2.23178868 7.03702917 -4 9 C-5.0111222 10.32491874 -6.01663902 11.65434813 -7 13 C-7.66 12.67 -8.32 12.34 -9 12 C-7.68858144 10.18671738 -6.37583526 8.37439486 -5.0625 6.5625 C-3.96615234 5.04849609 -3.96615234 5.04849609 -2.84765625 3.50390625 C-1 1 -1 1 0 0 Z " fill="#AAAAAA" transform="translate(352,207)"/>
</svg>
